<?xml version="1.0" encoding="UTF-8"?>
<svg width="547px" height="127px" viewBox="0 0 547 127" version="1.1" xmlns="http://www.w3.org/2000/svg" xmlns:xlink="http://www.w3.org/1999/xlink">
    <title>Logo</title>
    <g id="Logo" stroke="none" stroke-width="1" fill="none" fill-rule="evenodd">
        <path d="M38.4068523,112.687602 C48.4920813,79.7003043 54.9145772,56.3790316 57.6249024,42.8854867 C56.4296732,42.1664345 54.5873921,41.2495587 52.3227102,40.557176 C50.8668433,40.1120728 49.3121015,39.9903745 47.5461594,39.9809227 L43.393418,53.5639277 C41.5147969,59.7086204 38.8946149,68.2788498 35.8563978,79.3735275 C30.9755463,95.9166324 28.3193776,105.183127 27.6272541,107.446962 C26.8362557,110.034201 26.1306814,111.763472 25.5599684,112.473072 C24.9667196,114.413501 21.3494114,115.252566 15.081007,114.927475 C10.88862,114.176185 6.90743335,113.312648 3.2992101,112.38632 C2.67905973,113.257623 2.23412315,114.712945 1.64087438,116.653374 C1.04762561,118.593803 0.813889429,119.936879 1.16431702,121.104917 C2.74596036,122.295742 5.23529346,123.410441 8.79407932,124.498471 C13.1616801,125.833781 17.8887936,126.571737 23.0877451,126.923497 C29.7650995,126.489531 33.8407951,124.729708 35.314832,121.644027 C35.8720942,120.399863 36.9731677,117.376973 38.4068523,112.687602 Z M58.1209105,43.3023705 C54.7236144,36.5271186 48.8462179,32.4467767 42.0024329,30.3544216 C34.1057579,27.9401658 26.8147427,28.7227907 20.1694855,32.5711408 C13.5355448,36.8531952 9.12152974,42.8178531 6.75573093,50.5560323 C4.22953899,58.8188338 4.42191771,66.1918076 7.55599131,72.8865843 C10.7702615,79.3190498 17.0165878,83.3656041 25.4397078,85.9408103 C32.1004669,87.690379 32.7614685,77.9968424 27.7201427,76.5989693 C22.7189152,75.0699406 18.6010017,72.5345966 16.5764001,68.3302423 C14.6834097,64.1661257 14.6905406,59.4356156 16.3746686,53.9270812 C17.9786,48.680858 20.9212766,44.7044195 25.4145064,41.775692 C29.8275397,39.1092757 34.5089627,38.3893075 39.5101902,39.9183362 C44.2481952,41.3668897 48.5050207,44.3893101 52.3207652,48.854442 C54.9365065,47.3595166 57.2562137,45.189229 58.1209105,43.3023705 Z M124.375343,37.25 C120.501343,37.399 117.521343,37.995 115.733343,39.187 C115.842618,40.6804275 119.103695,55.710663 117.520226,69.583 C117.210704,72.2946346 116.87504,80.1293006 112.698109,84.036 C107.629821,88.7763881 98.2264114,90.145 97.5553428,90.145 C90.7013428,90.145 85.6353428,88.208 82.6553428,84.036 C80.1223428,81.056 78.9303428,76.139 78.9303428,69.583 C78.9303428,63.027 80.4203428,53.044 83.5493428,39.932 C81.3143428,38.442 78.4833428,37.548 75.0563428,37.25 C70.5863428,51.107 68.5003428,62.133 68.5003428,70.328 C68.5003428,79.417 70.5863428,86.271 74.4603428,91.039 C78.9303428,97.148 86.6783428,100.128 97.4063428,100.128 C102.455478,100.049107 115.708209,98.3811385 122.559244,91.039 C128.647348,84.5144814 128.660512,72.4148032 128.849926,69.583 C130.066055,51.4015125 125.121636,39.3396222 124.375343,37.25 Z M114.942343,23.072 C111.962343,20.39 108.684343,19.049 105.108343,19.049 C102.724343,22.327 101.234343,25.754 100.638343,29.479 C104.214343,32.31 107.492343,33.651 110.472343,33.651 C111.068343,33.055 112.111343,31.267 113.303343,28.585 C114.346343,25.903 114.942343,24.115 114.942343,23.072 Z M96.6383428,23.072 C93.6583428,20.39 90.3803428,19.049 86.8043428,19.049 C84.4203428,22.327 82.9303428,25.754 82.3343428,29.479 C85.9103428,32.31 89.1883428,33.651 92.1683428,33.651 C92.7643428,33.055 93.6583428,31.267 94.8503428,28.585 C96.0423428,25.903 96.6383428,24.115 96.6383428,23.072 Z M141.298343,69.136 C142.043343,89.251 152.324343,99.532 172.290343,99.979 C178.697343,99.979 175.568343,89.698 172.290343,89.698 C159.029343,89.549 152.324343,82.546 152.175343,68.54 C152.771343,54.683 159.327343,47.531 171.545343,47.084 C176.313343,47.382 181.826343,48.723 188.084343,51.405 C189.872343,48.723 190.915343,46.041 190.915343,43.657 C185.551343,39.336 178.846343,37.101 171.098343,36.952 C152.026343,37.846 142.043343,48.574 141.298343,69.136 Z M196.901343,55.875 C196.901343,23.393 196.454343,4.917 195.858343,0.447 C193.772343,0.149 192.282343,0 191.239343,0 C190.047343,0 188.557343,0.298 186.620343,0.596 C185.875343,2.384 185.577343,19.966 185.577343,53.342 C185.577343,82.099 186.024343,97.446 187.067343,99.383 C187.961343,99.83 189.600343,99.979 191.835343,99.979 C193.623343,99.979 195.113343,99.681 196.156343,99.085 C196.603343,94.168 196.901343,79.715 196.901343,55.875 Z M215.563343,0 C214.520343,0 213.030343,0.149 210.944343,0.447 C210.360263,4.8276 209.919282,22.6595624 209.901877,53.9428872 L209.902211,58.0824945 C209.920113,80.609 210.213312,94.3216562 210.646343,99.085 C211.689343,99.681 213.179343,99.979 214.967343,99.979 C217.202343,99.979 218.841343,99.83 219.735343,99.383 C220.757483,97.48474 221.207224,82.707516 221.224805,55.051328 L221.225277,50.3863186 C226.459126,48.3781983 231.136481,47.3415539 235.257343,47.084 C247.475343,47.531 254.031343,54.683 254.627343,68.54 C254.478343,82.546 247.773343,89.549 234.512343,89.698 C231.234343,89.698 228.105343,99.979 234.512343,99.979 C254.478343,99.532 264.759343,89.251 265.504343,69.136 C264.759343,48.574 254.776343,37.846 235.704343,36.952 C230.339077,37.0551782 225.473947,38.1586269 221.207904,40.2623463 C221.133224,15.35612 220.823128,2.13388458 220.182343,0.596 C218.245343,0.298 216.755343,0 215.563343,0 Z M338.967343,69.881 C338.967343,60.047 335.391343,52.15 328.388343,45.892 C325.706343,46.935 323.620343,48.872 321.981343,51.703 C326.451343,57.067 328.686343,63.027 328.686343,69.434 C328.686343,73.01 327.643343,76.288 325.557343,79.417 C323.173343,82.695 320.640343,85.228 317.958343,87.016 C319.001343,88.804 319.746343,89.996 320.044343,90.592 C320.342343,91.337 321.087343,92.529 322.279343,94.317 C326.749343,92.827 330.772343,89.698 334.199343,84.93 C337.328343,80.311 338.967343,75.245 338.967343,69.881 Z M321.385343,41.124 C317.213343,38.144 312.147343,36.654 306.187343,36.654 C296.353343,36.952 288.307343,40.379 282.198343,47.084 C276.834343,53.491 274.152343,60.941 274.152343,69.434 C274.152343,77.927 276.983343,85.377 282.794343,91.635 C288.456343,97.595 295.757343,100.426 304.846343,100.426 C309.018343,100.426 312.594343,99.532 315.425343,97.595 C315.127343,94.615 314.382343,92.082 312.892343,89.847 C310.210343,90.741 307.528343,91.188 304.846343,91.188 C299.184343,91.188 294.565343,89.102 290.691343,84.93 C286.817343,80.46 285.029343,75.245 285.029343,69.583 C285.029343,63.772 286.668343,58.706 290.095343,54.236 C294.416343,48.872 299.780343,46.19 306.336343,46.041 C310.061343,46.041 313.786343,47.084 317.660343,49.021 C318.256343,48.425 318.852343,47.382 319.597343,45.892 C320.640343,44.402 321.236343,42.912 321.385343,41.124 Z M412.722343,69.881 C412.722343,60.047 409.146343,52.15 402.143343,45.892 C399.461343,46.935 397.375343,48.872 395.736343,51.703 C400.206343,57.067 402.441343,63.027 402.441343,69.434 C402.441343,73.01 401.398343,76.288 399.312343,79.417 C396.928343,82.695 394.395343,85.228 391.713343,87.016 C392.756343,88.804 393.501343,89.996 393.799343,90.592 C394.097343,91.337 394.842343,92.529 396.034343,94.317 C400.504343,92.827 404.527343,89.698 407.954343,84.93 C411.083343,80.311 412.722343,75.245 412.722343,69.881 Z M395.140343,41.124 C390.968343,38.144 385.902343,36.654 379.942343,36.654 C370.108343,36.952 362.062343,40.379 355.953343,47.084 C350.589343,53.491 347.907343,60.941 347.907343,69.434 C347.907343,77.927 350.738343,85.377 356.549343,91.635 C362.211343,97.595 369.512343,100.426 378.601343,100.426 C382.773343,100.426 386.349343,99.532 389.180343,97.595 C388.882343,94.615 388.137343,92.082 386.647343,89.847 C383.965343,90.741 381.283343,91.188 378.601343,91.188 C372.939343,91.188 368.320343,89.102 364.446343,84.93 C360.572343,80.46 358.784343,75.245 358.784343,69.583 C358.784343,63.772 360.423343,58.706 363.850343,54.236 C368.171343,48.872 373.535343,46.19 380.091343,46.041 C383.816343,46.041 387.541343,47.084 391.415343,49.021 C392.011343,48.425 392.607343,47.382 393.352343,45.892 C394.395343,44.402 394.991343,42.912 395.140343,41.124 Z M485.881343,43.955 C485.434343,42.167 484.838343,40.826 484.242343,39.932 C483.199343,38.442 482.305343,37.548 481.709343,36.952 C471.875343,41.124 457.273343,47.829 437.754343,57.216 C438.052343,36.356 438.350343,21.009 438.350343,11.324 C438.350343,5.215 438.201343,1.639 438.052343,0.596 C437.158343,0.298 435.668343,0.149 433.433343,0.149 C430.751343,0.149 429.112343,0.298 428.516343,0.596 C426.877343,24.734 426.132343,48.425 426.132343,71.371 C426.132343,86.867 426.430343,96.254 427.324343,99.532 C428.218343,99.83 429.708343,99.979 431.794343,99.979 C434.327343,99.979 435.966343,99.83 436.562343,99.234 C437.009343,97.446 437.307343,92.827 437.456343,85.377 C437.456343,75.245 437.605343,69.881 437.754343,68.987 C443.118343,66.752 451.462343,62.878 462.935343,57.216 C477.239343,50.064 484.838343,45.594 485.881343,43.955 Z M484.540343,94.317 C483.348343,92.231 479.325343,87.165 472.471343,79.119 C466.362343,72.265 462.637343,68.54 461.147343,67.944 C457.720343,69.583 455.634343,71.52 454.740343,73.606 C455.634343,75.841 458.912343,80.46 464.872343,87.612 C472.024343,95.807 476.494343,99.83 478.282343,100.128 C481.262343,98.638 483.348343,96.701 484.540343,94.317 Z M493.331343,90.443 C501.526343,96.85 511.062343,100.128 521.790343,100.426 C529.091343,100.426 534.604343,99.234 538.329343,97.148 C543.842343,94.168 546.673343,89.996 546.822343,84.483 C546.822343,77.629 542.799343,72.563 534.455343,68.987 C525.664343,65.411 520.598343,63.176 519.108343,62.58 C514.042343,59.898 511.509343,56.769 511.509343,53.342 C511.956343,48.574 515.532343,46.041 522.088343,46.041 C527.750343,46.041 533.859343,48.723 540.266343,54.236 C541.607343,52.895 542.501343,52.001 542.948343,51.554 C544.140343,49.915 544.885343,48.574 545.183343,47.68 C538.478343,40.23 530.879343,36.505 522.237343,36.505 C508.678343,36.803 501.526343,42.167 500.632343,53.193 C500.632343,59.749 504.208343,64.964 511.211343,68.689 C513.595343,69.881 519.257343,72.414 527.899343,76.288 C533.114343,78.374 535.647343,81.056 535.647343,84.334 C535.647343,88.953 531.177343,91.337 522.088343,91.337 C513.744343,91.337 505.698343,88.506 497.652343,83.142 C496.460343,83.887 495.566343,84.93 494.821343,86.42 C493.927343,88.059 493.331343,89.4 493.331343,90.443 Z" id="Combined-Shape" fill="#F7AF5D" fill-rule="nonzero"></path>
    </g>
</svg>